<?xml version="1.0" standalone="no"?><svg xmlns="http://www.w3.org/2000/svg" viewBox="0 0 1440 320"><path fill="#EFFAFF" fill-opacity="1" d="M0,192L34.3,176C68.6,160,137,128,206,96C274.3,64,343,32,411,48C480,64,549,128,617,165.3C685.7,203,754,213,823,213.3C891.4,213,960,203,1029,170.7C1097.1,139,1166,85,1234,69.3C1302.9,53,1371,75,1406,85.3L1440,96L1440,320L1405.7,320C1371.4,320,1303,320,1234,320C1165.7,320,1097,320,1029,320C960,320,891,320,823,320C754.3,320,686,320,617,320C548.6,320,480,320,411,320C342.9,320,274,320,206,320C137.1,320,69,320,34,320L0,320Z"></path></svg>